<svg
  width="744"
  height="744"
  viewBox="0 0 744 744"
  fill="none"
  xmlns="http://www.w3.org/2000/svg"
>
  <path
    opacity="0.5"
    d="M743.749 5.34924L561.798 684.736C560.873 687.82 557.172 688.745 555.014 686.586L433.199 564.772L524.483 224.307C525.408 221.223 522.632 218.448 519.548 219.373L179.084 310.657L57.8861 189.459C55.7274 187.3 56.6525 183.6 59.7364 182.674L738.815 0.414972C741.899 -0.201811 744.674 2.57371 743.749 5.34924Z"
    fill="#00B37E"
  />
  <path
    opacity="0.5"
    d="M433.196 564.774L386.321 740.557C385.396 743.641 381.695 744.566 379.536 742.407L1.44799 364.628C-0.710751 362.469 0.214419 358.768 3.29834 357.843L179.082 310.659L433.196 564.774Z"
    fill="#00B37E"
  />
  <path
    d="M524.482 224.304L433.198 564.768L179.083 310.653L519.548 219.369C522.632 218.444 525.407 221.22 524.482 224.304Z"
    fill="#00B37E"
  />
</svg>
